<svg height="512" viewBox="0 0 60 60" width="512" xmlns="http://www.w3.org/2000/svg"><g id="Page-1" fill="none" fill-rule="evenodd"><g id="017---Science-Book" fill-rule="nonzero"><path id="Shape" d="m25.45 51.56-.45 5.44h-21.57c-.59812887.0019241-1.16572357-.2639571-1.54711282-.7247217-.38138924-.4607647-.53653535-1.0680425-.42288718-1.6552783l4.38-22.48c.09088666-.4696413.50164591-.8091464.98-.81h2.78l-3.33 20.02c-.05367853.34297.07290024.6894277.33503285.9170157.2621326.227588.62292878.3042775.95496715.2029843 5.7766583-1.8869298 11.9516903-2.2010315 17.89-.91z" fill="#e8edfc"/><path id="Shape" d="m56.57 57h-21.57l-.45-5.44c5.9383097-1.2910315 12.1133417-.9769298 17.89.91.3320384.1012932.6928345.0246037.9549672-.2029843.2621326-.227588.3887113-.5740457.3350328-.9170157l-3.33-20.02h2.78c.4783541.0008536.8891133.3403587.98.81l4.38 22.48c.1136482.5872358-.0414979 1.1945136-.4228872 1.6552783-.3813892.4607646-.9489839.7266458-1.5471128.7247217z" fill="#e8edfc"/><path id="Shape" d="m58.54 54.62-4.38-22.48c-.0908867-.4696413-.5016459-.8091464-.98-.81h-2.78l.007.04c.3795812.0880398.673455.3885482.753.77l4.38 22.48c.1136482.5872358-.0414979 1.1945136-.4228872 1.6552783-.3813892.4607646-.9489839.7266458-1.5471128.7247217h3c.5981289.0019241 1.1657236-.2639571 1.5471128-.7247217.3813893-.4607647.5365354-1.0680425.4228872-1.6552783z" fill="#cad9fc"/><path id="Shape" d="m52.44 52.47c-5.7766583-1.8869298-11.9516903-2.2010315-17.89-.91-1.5622235.3219753-3.0869896.8045387-4.55 1.44-1.4630104-.6354613-2.9877765-1.1180247-4.55-1.44-5.9383097-1.2910315-12.1133417-.9769298-17.89.91-.33203837.1012932-.69283455.0246037-.95496715-.2029843-.26213261-.227588-.38871138-.5740457-.33503285-.9170157l3.33-20.02.28-1.69c.07166701-.4288869.4102856-.7634743.84-.83 1.39-.21 2.84-.38 4.3-.48l29.96.01c1.46.1 2.91.26 4.3.47.4297144.0665257.768333.4011131.84.83l.28 1.69 3.33 20.02c.0536785.34297-.0729002.6894277-.3350328.9170157-.2621327.227588-.6229288.3042775-.9549672.2029843z" fill="#fff"/><path id="Shape" d="m53.73 51.35-3.33-20.02-.28-1.69c-.071667-.4288869-.4102856-.7634743-.84-.83-1.39-.21-2.84-.37-4.3-.47h-3c1.46.1 2.91.26 4.3.47.4297144.0665257.768333.4011131.84.83l.28 1.69 3.33 20.02c.0320035.2055495-.0030617.4159408-.1.6.6.157 1.2.326 1.807.521.3326245.1027252.6947115.0265466.9577461-.2014981.2630345-.2280446.3897811-.575673.3352539-.9195019z" fill="#e8edfc"/><path id="Shape" d="m35 57c0 1.1-2.24 2-5 2s-5-.9-5-2l.45-5.44c1.5622235.3219753 3.0869896.8045387 4.55 1.44 1.4630104-.6354613 2.9877765-1.1180247 4.55-1.44z" fill="#cad9fc"/><path id="Shape" d="m39 30.96c0 .22-.65.42-1.75.59-2.4044776.3019652-4.8268084.4389521-7.25.41-2.4231916.0289521-4.8455224-.1080348-7.25-.41-1.1-.17-1.75-.37-1.75-.59-.030726-3.3305761.2370109-6.6572078.8-9.94 1.84-10.28 6.34-13.2 7.76-13.88.278943-.12994089.601057-.12994089.88 0 1.42.68 5.92 3.6 7.76 13.88.5629891 3.2827922.830726 6.6094239.8 9.94z" fill="#cad9fc"/><path id="Shape" d="m38.2 21.02c-1.84-10.28-6.34-13.2-7.76-13.88-.278943-.12994089-.601057-.12994089-.88 0-.3707067.18121427-.7253195.39364741-1.06.635 1.925 1.368 5.2 4.853 6.7 13.245.5629891 3.2827922.830726 6.6094239.8 9.94 0 .22-.65.42-1.75.59-1.9068266.2485885-3.8270875.3801681-5.75.394.489.01.987.016 1.5.016 2.4231916.0289521 4.8455224-.1080348 7.25-.41 1.1-.17 1.75-.37 1.75-.59.030726-3.3305761-.2370109-6.6572078-.8-9.94z" fill="#a4c2f7"/><circle id="Oval" cx="30" cy="17.96" fill="#e8edfc" r="3"/><path id="Shape" d="m39 36.96-4-1-1 7-4-5-4 5-1-7-4 1 1.75-5.41c2.4044776.3019652 4.8268084.4389521 7.25.41 2.4231916.0289521 4.8455224-.1080348 7.25-.41z" fill="#e8edfc"/><path id="Shape" d="m21.8 21.02c-.5629891 3.2827922-.830726 6.6094239-.8 9.94-1.8898776-.0286384-3.7275115.6205643-5.18 1.83-.3179493.2648918-.7662137.3065736-1.1275516.1048451-.3613378-.2017285-.561089-.6051859-.5024484-1.0148451 1.1-8.32 6.51-10.5 7.61-10.86z" fill="#a4c2f7"/><path id="Shape" d="m45.81 31.88c.0586406.4096592-.1411106.8131166-.5024484 1.0148451-.3613379.2017285-.8096023.1600467-1.1275516-.1048451-1.4524885-1.2094357-3.2901224-1.8586384-5.18-1.83.030726-3.3305761-.2370109-6.6572078-.8-9.94 1.1.36 6.51 2.54 7.61 10.86z" fill="#a4c2f7"/><path id="Shape" d="m38.2 21.02c.115.632.218 1.3.31 1.985 2.4785008 2.3257779 4.0099478 5.4855448 4.3 8.872.4873249.2561341.9467811.5621031 1.371.913.3179493.2648918.7662137.3065736 1.1275516.1048451.3613378-.2017285.561089-.6051859.5024484-1.0148451-1.101-8.32-6.511-10.5-7.611-10.86z" fill="#7facfa"/><path id="Shape" d="m9.6 31.33h-2.78c-.47835409.0008536-.88911334.3403587-.98.81l-4.38 22.48c-.11364817.5872358.04149794 1.1945136.42288718 1.6552783.38138925.4607646.94898395.7266458 1.54711282.7247217h3c-.59812887.0019241-1.16572357-.2639571-1.54711282-.7247217-.38138924-.4607647-.53653535-1.0680425-.42288718-1.6552783l4.38-22.48c.09088666-.4696413.50164591-.8091464.98-.81" fill="#fff"/><path id="Rectangle-path" d="m1.075 35.066h8v2h-8z" fill="#fff" transform="matrix(.191 -.982 .982 .191 -31.296 34.15)"/><g fill="#428dff"><path id="Shape" d="m5.1 37.066c-.55228473.0027614-1.00223852-.4427153-1.00499994-.995-.00276143-.5522847.44271521-1.0022385.99499994-1.005h.01c.55228475 0 1 .4477153 1 1s-.44771525 1-1 1z"/><path id="Shape" d="m58.893 56.9c.569697-.689181.8001904-1.5975745.628-2.475l-4.378-22.472c-.180728-.9415823-1.0042302-1.6224504-1.963-1.623h-1.931l-.142-.851c-.1425852-.8566775-.8187535-1.525185-1.677-1.658-1.226-.185-2.476-.32-3.726-.42-1.1471072-3.1745701-3.5388126-5.7443082-6.623-7.116-1.968-10.168-6.549-13.251-8.213-14.047-.5487804-.26455362-1.1882196-.26455362-1.737 0-1.663.8-6.244 3.879-8.212 14.047-3.0808689 1.3705047-5.470747 3.9365818-6.619 7.107-1.2.1-2.442.235-3.722.428-.86035287.129809-1.53978521.7979443-1.684 1.656l-.142.854h-1.932c-.95876982.0005496-1.78227202.6814177-1.963 1.623-.05010899.2605877.00541112.530407.15433415.7500403s.37903621.3710692.63966585.4209597c.06263733.0118845.12624525.0179105.19.018.47859875-.0015172.88902539-.3419323.979-.812h1.6l-3.138 18.859c-.11037243.6864386.14237999 1.3811045.66806574 1.836115.52568576.4550104 1.24941507.6055441 1.91293426.397885 5.3310039-1.7271415 11.0104532-2.0875013 16.517-1.048l-.298 3.625h-20.652c-.30168092.0002141-.58756596-.1348382-.779-.368-.18895586-.228251-.2659823-.5290209-.21-.82l2.85-14.627c.1063148-.5420675-.24693253-1.0676852-.789-1.174-.54206748-.1063148-1.06768518.2469325-1.174.789l-2.849 14.628c-.17101461.8804657.06089033 1.7912635.6321472 2.4827341.57125686.6914705 1.42193438 1.0910707 2.3188528 1.0892659h20.854c.828 1.366 3.344 2 5.716 2 2.347 0 4.839-.619 5.691-2h20.879c.9001468.0004088 1.752907-.403395 2.323-1.1zm-5.714-24.568 4.38 22.48c.0559823.2909791-.0210441.591749-.21.82-.191434.2331618-.4773191.3682141-.779.368h-20.649l-.3-3.631c5.5094919-1.0378136 11.1914355-.6746974 16.524 1.056.6633643.2049213 1.3855275.0522508 1.9091961-.4036178.5236686-.4558685.7743775-1.1501113.6628039-1.8353822l-3.135-18.855zm-8.363-.311c-1.3708733-1.1385153-3.0529819-1.8375643-4.827-2.006-.0209346-2.4360759-.1905835-4.8686013-.508-7.284 1.853 1.133 4.603 3.715 5.335 9.29zm-7.322 3.532-2.252-.563c-.2744931-.0685125-.5651619-.0175481-.7999726.1402629-.2348107.1578111-.3917872.4076994-.4320274.6877371l-.673 4.712-2.556-3.195c-.1967485-.2257433-.4815505-.3553128-.781-.3553128s-.5842515.1295695-.781.3553128l-2.556 3.2-.673-4.712c-.0402402-.2800377-.1972167-.529926-.4320274-.6877371-.2348107-.157811-.5254795-.2087754-.7999726-.1402629l-2.252.563.933-2.884c2.1796608.2216943 4.3703159.317187 6.561.286 2.1907806.029526 4.3814359-.0676361 6.561-.291zm-7.488-27.511c1.321.632 7.849 4.671 7.987 22.353-2.6390484.4525659-5.3165304.6418287-7.993.565-2.6765187.0772534-5.3540757-.1123497-7.993-.566.138-17.681 6.667-21.72 7.999-22.352zm-9.487 14.689c-.3174165 2.4153987-.4870654 4.8479241-.508 7.284-1.7719032.1681987-3.4529732.862637-4.827 1.994.732-5.567 3.482-8.146 5.335-9.278zm-13.263 28.783 3.613-21.714c.954-.144 1.878-.251 2.783-.341-.195613.7540517-.3462122 1.5190687-.451 2.291-.1130577.8187137.2891214 1.6226417 1.0120985 2.0231142.722977.4004726 1.6178186.3149923 2.2519015-.2151142 1.1784243-.9754792 2.649767-1.5278928 4.179-1.569.25855.1336455.5308009.2389248.812.314l-1.407 4.35c-.111706.3455527-.0272934.7245052.2205192.9899742.2478127.2654691.6200688.3757225.9724808.2880258l2.925-.731.843 5.9c.05674.3946523.3424958.7178878.7272121.8225932s.7948696-.0291297 1.0437879-.3405932l3.219-4.021 3.219 4.023c.1896629.2375116.4770531.375871.781.376.0891355-.000316.1778614-.0120789.264-.035.384364-.1051755.6695967-.4285177.726-.823l.843-5.9 2.925.731c.352412.0876967.7246681-.0225567.9724808-.2880258.2478126-.265469.3322252-.6444215.2205192-.9899742l-1.407-4.355c.2811991-.0750752.55345-.1803545.812-.314 1.5296984.0411677 3.001441.5939514 4.18 1.57.6339484.5298848 1.5284794.6153954 2.2513355.2152112.7228562-.4001841 1.1252217-1.2036764 1.0126645-2.0222112-.1041292-.7692525-.2540622-1.531607-.449-2.283.934.09 1.866.2 2.784.338l3.61 21.714c-7.0563998-2.3568778-14.6876002-2.3568778-21.744 0v-6.518c0-.5522847-.4477153-1-1-1s-1 .4477153-1 1v6.522c-7.0558975-2.3593348-14.6873684-2.3621425-21.745-.008zm22.744 6.486c-2.409 0-3.791-.712-3.994-1.029l.344-4.15c1.0995773.2737803 2.1756369.6345846 3.218 1.079.1348035.0649541.2823664.0991122.432.1.1500306-.0002285.2980631-.0344161.433-.1 1.0416583-.4469425 2.1174286-.8097684 3.217-1.085l.344 4.155c-.203.318-1.585 1.03-3.994 1.03z"/><path id="Shape" d="m30 21.96c2.209139 0 4-1.790861 4-4s-1.790861-4-4-4-4 1.790861-4 4 1.790861 4 4 4zm0-6c1.1045695 0 2 .8954305 2 2s-.8954305 2-2 2-2-.8954305-2-2 .8954305-2 2-2z"/><path id="Shape" d="m15 0c-.5522847 0-1 .44771525-1 1v2c0 .55228475.4477153 1 1 1s1-.44771525 1-1v-2c0-.55228475-.4477153-1-1-1z"/><path id="Shape" d="m14 9c0 .55228475.4477153 1 1 1s1-.44771525 1-1v-2c0-.55228475-.4477153-1-1-1s-1 .44771525-1 1z"/><path id="Shape" d="m17 6h2c.5522847 0 1-.44771525 1-1s-.4477153-1-1-1h-2c-.5522847 0-1 .44771525-1 1s.4477153 1 1 1z"/><path id="Shape" d="m13 4h-2c-.5522847 0-1 .44771525-1 1s.4477153 1 1 1h2c.5522847 0 1-.44771525 1-1s-.4477153-1-1-1z"/><path id="Shape" d="m49 13c-.5522847 0-1 .4477153-1 1v2c0 .5522847.4477153 1 1 1s1-.4477153 1-1v-2c0-.5522847-.4477153-1-1-1z"/><path id="Shape" d="m48 22c0 .5522847.4477153 1 1 1s1-.4477153 1-1v-2c0-.5522847-.4477153-1-1-1s-1 .4477153-1 1z"/><path id="Shape" d="m51 19h2c.5522847 0 1-.4477153 1-1s-.4477153-1-1-1h-2c-.5522847 0-1 .4477153-1 1s.4477153 1 1 1z"/><path id="Shape" d="m47 17h-2c-.5522847 0-1 .4477153-1 1s.4477153 1 1 1h2c.5522847 0 1-.4477153 1-1s-.4477153-1-1-1z"/><path id="Shape" d="m17 41c.5522847 0 1-.4477153 1-1v-2c0-.5522847-.4477153-1-1-1s-1 .4477153-1 1v2c0 .5522847.4477153 1 1 1z"/><path id="Shape" d="m17 43c-.5522847 0-1 .4477153-1 1v2c0 .5522847.4477153 1 1 1s1-.4477153 1-1v-2c0-.5522847-.4477153-1-1-1z"/><path id="Shape" d="m21 41h-2c-.5522847 0-1 .4477153-1 1s.4477153 1 1 1h2c.5522847 0 1-.4477153 1-1s-.4477153-1-1-1z"/><path id="Shape" d="m15 41h-2c-.5522847 0-1 .4477153-1 1s.4477153 1 1 1h2c.5522847 0 1-.4477153 1-1s-.4477153-1-1-1z"/></g></g></g></svg>